<?xml version="1.0" encoding="utf-8"?>
<!-- Generator: Adobe Illustrator 27.0.1, SVG Export Plug-In . SVG Version: 6.00 Build 0)  -->
<svg version="1.1" id="Layer_1" xmlns="http://www.w3.org/2000/svg" xmlns:xlink="http://www.w3.org/1999/xlink" x="0px" y="0px"
	 viewBox="0 0 840 110.5" style="enable-background:new 0 0 840 110.5;" xml:space="preserve">
<path d="M281.2,73c0-19.2,0.1-38.5-0.1-57.7c0-3.5,0.8-4.8,4.5-4.7c8.6,0.4,7.7-1.2,7.7,7.9c0,24.6,0,49.2,0,73.9
	c0,5-2.1,6.6-6.8,4.3c-2.5-1.2-4.7-3.3-6.5-5.4c-16.8-18.8-32.7-37.7-49.7-56.5c0,19.5-0.1,38.4,0.1,57.8c0,3.6-1.1,4.7-4.7,4.7
	c-8.2,0-7.6,1-7.6-7.6c0-24.6,0-49.2,0.1-73.9c0-1.7,0.6-4.7,1.3-4.8c2.9-0.5,6.1-1.3,8.6,1.7c17.2,20.3,34.7,40.4,52.1,60.6
	C280.6,73.2,280.9,73.1,281.2,73z"/>
<path d="M18.1,60.1c11.3-4.7,22.1-10.5,35-8c2.2,0.4,5-0.4,7-1.5c13.8-7.9,27.5-16.1,41.3-24.1c1.3-0.8,3-1.5,4.5-1.5
	c21.6-0.1,43.2-0.1,64.8,0c0.4,0,0.7,0.1,1.2,0.7c-19.8,3.6-39.7,7.2-59.5,10.8c-0.1,0.3-0.1,0.5-0.2,0.8c6,1.6,12,3.3,18.1,4.9
	c0,0.2-0.1,0.4-0.1,0.6c-10.8,2.3-21.5,4.6-32.3,6.8c0,0.2-0.1,0.5-0.1,0.7c5.4,1.7,10.8,3.4,16.3,5.2c0,0.2,0,0.5,0,0.7
	c-8.8,2-17.7,3.9-27.5,6.1c10.4,7.5,20.1,14.4,29.7,21.2c-0.1,0.2-0.2,0.4-0.3,0.5c-14.3-3.1-28.7-6.3-43-9.4
	c-6.5-1.4-13-2.5-18.5-6.5c-8-5.7-17-7.2-26.5-7.3C24.5,60.8,21.3,60.4,18.1,60.1z"/>
<path d="M548,97.3c-4.3,0-7.7,0.2-11.1-0.1c-1-0.1-2.2-1.4-2.8-2.5c-1.8-3.3-3.3-6.7-4.8-10.1c-0.9-2-2.1-2.6-4.3-2.6
	c-13.7,0.1-27.5,0.1-41.2,0c-2,0-3.2,0.6-4,2.5c-1.5,3.4-3,6.9-4.9,10c-0.8,1.3-2.6,2.5-4.1,2.7c-3,0.4-6.1,0.1-9.8,0.1
	c12.4-28.7,27.2-56.2,40.6-84.4c0.6-1.1,1.9-2.6,2.9-2.6c1,0,2.4,1.5,3,2.6C521,41.2,535,68.8,548,97.3z M504.5,32.5
	c-6.2,13.1-12,25.5-18.1,38.2c12.2,0,23.8,0,36.1,0C516.5,57.8,510.7,45.5,504.5,32.5z"/>
<path d="M629.7,43.7c-6.5,17-13.2,33.1-20,49.9c-0.6,1.5-2.2,2.5-3.4,3.8c-1.2-1.2-2.9-2.2-3.6-3.7c-4.9-9.7-9.6-19.6-14.7-30.2
	c-5.4,10.7-10,20.7-15.3,31.3c-0.6,1.1-2.1,2.5-3.2,2.4c-1,0-2.5-1.5-3-2.6C560,78.8,553.7,63,547.4,47.2c-0.3-0.9-0.5-1.8-0.9-3.4
	c3.9,0,7.3-0.2,10.7,0.1c0.9,0.1,1.9,1.8,2.4,2.9c4,10.5,7.5,20.4,11.6,31c4.5-10.5,8.4-19.6,12.7-29.7c0.8-1.9,1.2-4,4.2-3.9
	c2.8,0,3.1,2,3.9,3.8c4.4,10.1,8.2,19.7,12.9,29.7c4-10.9,7.7-20.2,11.3-30.8c0.8-2.4,2-3.5,4.6-3.3
	C623.4,43.8,626.1,43.7,629.7,43.7z"/>
<path d="M318.3,75.1c0.8,9.1,10.7,13.3,17.3,12.2c4.4-0.7,8.8-2.5,13-4.3c1.9-0.8,3.1-1.7,4.7,0.4c1.5,2,2.4,3.5,0.3,5.8
	c-10,11.5-30.7,11.4-41.5-0.3c-9.8-10.8-9-29,1.7-38.8c16.2-15.1,44.2-4.9,44.5,17.6c0.1,4.9-2,7.1-7,7.1
	C340.5,75.1,329.3,74.4,318.3,75.1z M318.4,65.5c9.1,0,18.2,0,27.3,0C344.7,49.8,319.3,50.1,318.4,65.5z"/>
<path d="M753.9,75.1c1.4,8.1,9.1,13.6,17.8,12.3c4.3-0.7,8.5-2.5,12.6-4.2c1.8-0.8,3-1.9,4.7,0.3c1.6,2.1,2.6,3.6,0.3,6
	c-14.4,15.5-44,8.8-47.5-12.8c-5.3-21.8,16.6-40.6,37.3-31.4c9.7,3.9,15.8,14.1,14.9,24.5c-0.3,3.5-2.4,5.2-6.8,5.2
	C776.1,75,765,74.5,753.9,75.1z M781.8,65.5c-1.7-7.9-7.4-12.2-15-11.6c-7.2,0.5-12.3,5.1-12.8,11.6
	C763.2,65.5,772.3,65.5,781.8,65.5z"/>
<path d="M672.2,91.9c-9.8,8.1-32.3,9.5-35.7-5.2c-1.5-6.5,0.7-12.4,6.4-16.2c8.5-5.7,18.6-6.4,28.3-8.7c0.2-5.4-2.1-8.6-7.3-8.2
	c-6,0.5-11.9,2.1-17.8,3.7c-2.3,0.6-3.9,1.8-5.2-1.5c-2.6-6.3-2.8-6.4,1-8.1c15.4-7.1,40.4-8.7,41,14.2c0.3,10.8,0.6,21.6,1,32.4
	c0.1,2.2-0.5,3.1-2.9,3.2C674.8,97.6,674.8,97.7,672.2,91.9z M671.3,71.1c-7.1,2.4-13.5,4.3-19.7,6.8c-2.5,1-4.1,3.3-3.3,6.4
	c0.8,3.1,3.2,4,5.9,4.2c5.7,0.5,10.8-1.1,15.5-4.1c0.8-0.5,1.4-1.7,1.5-2.7C671.4,78.6,671.3,75.5,671.3,71.1z"/>
<path d="M388.3,98.1c-6.5-0.2-12.5-2.1-18.1-5.3c-4.6-2.7-1.1-4.2,0.4-7.5c1.2-2.8,2.7-2.6,5.5-1.7c4.7,1.6,9.8,2.4,14.8,2.9
	c2.5,0.2,5.3-1.2,5.6-4.4c0.3-3.1-2.1-4.3-4.5-5.1c-2.9-1-6.1-1.5-8.9-2.8c-3.7-1.7-7.7-3.3-10.6-5.9c-6.5-5.9-5.6-15.9,1.7-21
	c8.1-5.7,16.9-5,25.7-2c7.3,3.1,9.4,5.5,2.9,11.5c-0.7,0.7-2.4,0.6-3.6,0.3c-4.3-0.9-8.5-3.5-13-2.6c-2.5,0.4-5.1,1.1-5.6,4.1
	c-0.5,3.2,2.2,4.2,4.5,5.1c6.8,2.4,14.4,4,20,8.7c6.6,5.6,6.3,14.8-0.4,20.4C399.9,96.8,394.2,97.8,388.3,98.1z"/>
<path d="M437.3,43.7c3.8,0,7,0.1,10.2,0c2.2,0,3.2,0.9,3.1,3.1c0,10,0.6,8-7.8,8.1c-1.7,0-3.5,0-5.4,0c0,9-0.2,17.8,0.1,26.6
	c0.2,4.2,3.1,5.7,7.9,5.1c1.6-0.2,4.4-0.5,4.8,0.2c1.1,2.3,1.5,4.9,1.8,7.5c0.1,0.6-1.4,1.7-2.4,2c-5.3,1.8-10.8,2.1-16.1,0.1
	c-4.7-1.8-6.9-5.8-7.4-10.4c-1-10.6-0.9-20.2-0.8-31.2c-1.6,0-3.1,0.2-4.5,0c-1.2-0.2-3.4-0.8-3.4-1.3c0-1.6,0.3-3.5,1.2-4.7
	c2.5-3,5.7-5.3,8-8.3c2.6-3.6,4.4-7.7,6.7-11.6c0.5-0.9,1.7-1.5,2.5-2.2c0.5,1,1.3,2,1.3,3C437.4,34.3,437.3,38.7,437.3,43.7z"/>
<path d="M708.9,48.7c7.5-6.1,15.5-6.9,24.1-3.3c2.7,1.1,3.5,2.6,1.4,5c-2.8,3.2-2.8,7.1-8.2,4.7c-7.7-3.5-17,1.3-17.5,9.6
	c-0.2,9.3-0.2,18.7,0,28c0.1,3.3-0.8,4.7-4.4,4.6c-8.6-0.3-7.6,0.8-7.6-7.7c0-13.6,0-27.1,0-40.7c0-1.9-1.2-4.5,1.8-5.4
	C703.6,42.3,707.7,44.3,708.9,48.7z"/>
</svg>
